<?xml version="1.0" encoding="UTF-8" standalone="no"?>
<!DOCTYPE svg PUBLIC "-//W3C//DTD SVG 1.1//EN"
 "http://www.w3.org/Graphics/SVG/1.1/DTD/svg11.dtd">
<!-- Generated by graphviz version 2.30.1 (20201013.1554)
 -->
<!-- Title: %3 Pages: 1 -->
<svg width="313pt" height="188pt"
 viewBox="0.00 0.00 313.00 188.00" xmlns="http://www.w3.org/2000/svg" xmlns:xlink="http://www.w3.org/1999/xlink">
<g id="graph0" class="graph" transform="scale(1 1) rotate(0) translate(4 184)">
<title>%3</title>
<polygon fill="white" stroke="white" points="-4,5 -4,-184 310,-184 310,5 -4,5"/>
<!-- cm&#45;config -->
<g id="node1" class="node"><title>cm&#45;config</title>
<ellipse fill="none" stroke="black" cx="258" cy="-90" rx="46.1964" ry="18"/>
<text text-anchor="middle" x="258" y="-86.3" font-family="Times,serif" font-size="14.00">cm&#45;config</text>
</g>
<!-- cm&#45;install -->
<g id="node2" class="node"><title>cm&#45;install</title>
<ellipse fill="none" stroke="black" cx="258" cy="-18" rx="46.2191" ry="18"/>
<text text-anchor="middle" x="258" y="-14.3" font-family="Times,serif" font-size="14.00">cm&#45;install</text>
</g>
<!-- cm&#45;config&#45;&gt;cm&#45;install -->
<g id="edge1" class="edge"><title>cm&#45;config&#45;&gt;cm&#45;install</title>
<path fill="none" stroke="black" d="M258,-71.6966C258,-63.9827 258,-54.7125 258,-46.1124"/>
<polygon fill="black" stroke="black" points="261.5,-46.1043 258,-36.1043 254.5,-46.1044 261.5,-46.1043"/>
</g>
<!-- ingress&#45;config -->
<g id="node3" class="node"><title>ingress&#45;config</title>
<ellipse fill="none" stroke="black" cx="177" cy="-162" rx="60.1672" ry="18"/>
<text text-anchor="middle" x="177" y="-158.3" font-family="Times,serif" font-size="14.00">ingress&#45;config</text>
</g>
<!-- ingress&#45;controller&#45;install -->
<g id="node4" class="node"><title>ingress&#45;controller&#45;install</title>
<ellipse fill="none" stroke="black" cx="96" cy="-90" rx="96.2631" ry="18"/>
<text text-anchor="middle" x="96" y="-86.3" font-family="Times,serif" font-size="14.00">ingress&#45;controller&#45;install</text>
</g>
<!-- ingress&#45;config&#45;&gt;ingress&#45;controller&#45;install -->
<g id="edge2" class="edge"><title>ingress&#45;config&#45;&gt;ingress&#45;controller&#45;install</title>
<path fill="none" stroke="black" d="M158.213,-144.765C147.809,-135.773 134.69,-124.436 123.185,-114.493"/>
<polygon fill="black" stroke="black" points="125.385,-111.769 115.53,-107.878 120.808,-117.065 125.385,-111.769"/>
</g>
<!-- ingress&#45;config&#45;&gt;cm&#45;config -->
<g id="edge3" class="edge"><title>ingress&#45;config&#45;&gt;cm&#45;config</title>
<path fill="none" stroke="black" d="M195.787,-144.765C206.571,-135.445 220.271,-123.605 232.068,-113.41"/>
<polygon fill="black" stroke="black" points="234.595,-115.853 239.872,-106.666 230.018,-110.556 234.595,-115.853"/>
</g>
</g>
</svg>
