<?xml version="1.0" encoding="UTF-8" standalone="no"?>
<!DOCTYPE svg PUBLIC "-//W3C//DTD SVG 1.1//EN"
 "http://www.w3.org/Graphics/SVG/1.1/DTD/svg11.dtd">
<!-- Generated by graphviz version 2.30.1 (20201013.1554)
 -->
<!-- Title: %3 Pages: 1 -->
<svg width="311pt" height="188pt"
 viewBox="0.00 0.00 311.00 188.00" xmlns="http://www.w3.org/2000/svg" xmlns:xlink="http://www.w3.org/1999/xlink">
<g id="graph0" class="graph" transform="scale(1 1) rotate(0) translate(4 184)">
<title>%3</title>
<polygon fill="white" stroke="white" points="-4,5 -4,-184 308,-184 308,5 -4,5"/>
<!-- cm&#45;config -->
<g id="node1" class="node"><title>cm&#45;config</title>
<ellipse fill="none" stroke="black" cx="126" cy="-90" rx="46.1964" ry="18"/>
<text text-anchor="middle" x="126" y="-86.3" font-family="Times,serif" font-size="14.00">cm&#45;config</text>
</g>
<!-- cm&#45;install -->
<g id="node2" class="node"><title>cm&#45;install</title>
<ellipse fill="none" stroke="black" cx="46" cy="-18" rx="46.2191" ry="18"/>
<text text-anchor="middle" x="46" y="-14.3" font-family="Times,serif" font-size="14.00">cm&#45;install</text>
</g>
<!-- cm&#45;config&#45;&gt;cm&#45;install -->
<g id="edge1" class="edge"><title>cm&#45;config&#45;&gt;cm&#45;install</title>
<path fill="none" stroke="black" d="M107.847,-73.1159C97.2091,-63.808 83.5978,-51.8981 71.854,-41.6222"/>
<polygon fill="black" stroke="black" points="73.912,-38.7723 64.0814,-34.8212 69.3024,-44.0403 73.912,-38.7723"/>
</g>
<!-- ingress&#45;controller&#45;install -->
<g id="node3" class="node"><title>ingress&#45;controller&#45;install</title>
<ellipse fill="none" stroke="black" cx="207" cy="-18" rx="96.2631" ry="18"/>
<text text-anchor="middle" x="207" y="-14.3" font-family="Times,serif" font-size="14.00">ingress&#45;controller&#45;install</text>
</g>
<!-- cm&#45;config&#45;&gt;ingress&#45;controller&#45;install -->
<g id="edge2" class="edge"><title>cm&#45;config&#45;&gt;ingress&#45;controller&#45;install</title>
<path fill="none" stroke="black" d="M144.38,-73.1159C154.847,-64.0702 168.158,-52.567 179.814,-42.4944"/>
<polygon fill="black" stroke="black" points="182.285,-44.9842 187.563,-35.7973 177.708,-39.6879 182.285,-44.9842"/>
</g>
<!-- ingress&#45;config -->
<g id="node4" class="node"><title>ingress&#45;config</title>
<ellipse fill="none" stroke="black" cx="126" cy="-162" rx="60.1672" ry="18"/>
<text text-anchor="middle" x="126" y="-158.3" font-family="Times,serif" font-size="14.00">ingress&#45;config</text>
</g>
<!-- ingress&#45;config&#45;&gt;cm&#45;config -->
<g id="edge3" class="edge"><title>ingress&#45;config&#45;&gt;cm&#45;config</title>
<path fill="none" stroke="black" d="M126,-143.697C126,-135.983 126,-126.712 126,-118.112"/>
<polygon fill="black" stroke="black" points="129.5,-118.104 126,-108.104 122.5,-118.104 129.5,-118.104"/>
</g>
</g>
</svg>
