<?xml version="1.0" encoding="UTF-8" standalone="no"?>
<!DOCTYPE svg PUBLIC "-//W3C//DTD SVG 1.1//EN"
 "http://www.w3.org/Graphics/SVG/1.1/DTD/svg11.dtd">
<!-- Generated by graphviz version 2.30.1 (20201013.1554)
 -->
<!-- Title: %3 Pages: 1 -->
<svg width="315pt" height="260pt"
 viewBox="0.00 0.00 315.00 260.00" xmlns="http://www.w3.org/2000/svg" xmlns:xlink="http://www.w3.org/1999/xlink">
<g id="graph0" class="graph" transform="scale(1 1) rotate(0) translate(4 256)">
<title>%3</title>
<polygon fill="white" stroke="white" points="-4,5 -4,-256 312,-256 312,5 -4,5"/>
<!-- cm&#45;config -->
<g id="node1" class="node"><title>cm&#45;config</title>
<ellipse fill="none" stroke="black" cx="127" cy="-162" rx="46.1964" ry="18"/>
<text text-anchor="middle" x="127" y="-158.3" font-family="Times,serif" font-size="14.00">cm&#45;config</text>
</g>
<!-- cm&#45;install -->
<g id="node2" class="node"><title>cm&#45;install</title>
<ellipse fill="none" stroke="black" cx="46" cy="-90" rx="46.2191" ry="18"/>
<text text-anchor="middle" x="46" y="-86.3" font-family="Times,serif" font-size="14.00">cm&#45;install</text>
</g>
<!-- cm&#45;config&#45;&gt;cm&#45;install -->
<g id="edge1" class="edge"><title>cm&#45;config&#45;&gt;cm&#45;install</title>
<path fill="none" stroke="black" d="M108.62,-145.116C97.7734,-135.742 83.8736,-123.73 71.9262,-113.405"/>
<polygon fill="black" stroke="black" points="73.8831,-110.471 64.0284,-106.58 69.306,-115.767 73.8831,-110.471"/>
</g>
<!-- gateway&#45;controller&#45;install -->
<g id="node3" class="node"><title>gateway&#45;controller&#45;install</title>
<ellipse fill="none" stroke="black" cx="209" cy="-90" rx="98.1881" ry="18"/>
<text text-anchor="middle" x="209" y="-86.3" font-family="Times,serif" font-size="14.00">gateway&#45;controller&#45;install</text>
</g>
<!-- cm&#45;config&#45;&gt;gateway&#45;controller&#45;install -->
<g id="edge2" class="edge"><title>cm&#45;config&#45;&gt;gateway&#45;controller&#45;install</title>
<path fill="none" stroke="black" d="M145.607,-145.116C156.204,-136.07 169.679,-124.567 181.478,-114.494"/>
<polygon fill="black" stroke="black" points="183.99,-116.952 189.323,-107.797 179.445,-111.628 183.99,-116.952"/>
</g>
<!-- gateway&#45;api&#45;install -->
<g id="node4" class="node"><title>gateway&#45;api&#45;install</title>
<ellipse fill="none" stroke="black" cx="127" cy="-18" rx="76.0649" ry="18"/>
<text text-anchor="middle" x="127" y="-14.3" font-family="Times,serif" font-size="14.00">gateway&#45;api&#45;install</text>
</g>
<!-- cm&#45;install&#45;&gt;gateway&#45;api&#45;install -->
<g id="edge3" class="edge"><title>cm&#45;install&#45;&gt;gateway&#45;api&#45;install</title>
<path fill="none" stroke="black" d="M64.3802,-73.1159C74.9232,-64.0046 88.3512,-52.4002 100.067,-42.2756"/>
<polygon fill="black" stroke="black" points="102.57,-44.7384 107.847,-35.5516 97.9927,-39.4421 102.57,-44.7384"/>
</g>
<!-- gateway&#45;controller&#45;install&#45;&gt;gateway&#45;api&#45;install -->
<g id="edge5" class="edge"><title>gateway&#45;controller&#45;install&#45;&gt;gateway&#45;api&#45;install</title>
<path fill="none" stroke="black" d="M189.15,-72.055C178.598,-63.047 165.472,-51.8419 154.005,-42.0534"/>
<polygon fill="black" stroke="black" points="156.262,-39.3781 146.384,-35.5475 151.717,-44.7021 156.262,-39.3781"/>
</g>
<!-- gateway&#45;config -->
<g id="node5" class="node"><title>gateway&#45;config</title>
<ellipse fill="none" stroke="black" cx="127" cy="-234" rx="63.0666" ry="18"/>
<text text-anchor="middle" x="127" y="-230.3" font-family="Times,serif" font-size="14.00">gateway&#45;config</text>
</g>
<!-- gateway&#45;config&#45;&gt;cm&#45;config -->
<g id="edge4" class="edge"><title>gateway&#45;config&#45;&gt;cm&#45;config</title>
<path fill="none" stroke="black" d="M127,-215.697C127,-207.983 127,-198.712 127,-190.112"/>
<polygon fill="black" stroke="black" points="130.5,-190.104 127,-180.104 123.5,-190.104 130.5,-190.104"/>
</g>
</g>
</svg>
