<?xml version="1.0" encoding="UTF-8" standalone="no"?>
<!DOCTYPE svg PUBLIC "-//W3C//DTD SVG 1.1//EN"
 "http://www.w3.org/Graphics/SVG/1.1/DTD/svg11.dtd">
<!-- Generated by graphviz version 2.30.1 (20201013.1554)
 -->
<!-- Title: %3 Pages: 1 -->
<svg width="237pt" height="188pt"
 viewBox="0.00 0.00 237.27 188.00" xmlns="http://www.w3.org/2000/svg" xmlns:xlink="http://www.w3.org/1999/xlink">
<g id="graph0" class="graph" transform="scale(1 1) rotate(0) translate(4 184)">
<title>%3</title>
<polygon fill="white" stroke="white" points="-4,5 -4,-184 234.266,-184 234.266,5 -4,5"/>
<!-- cm&#45;config -->
<g id="node1" class="node"><title>cm&#45;config</title>
<ellipse fill="none" stroke="black" cx="60.2656" cy="-162" rx="46.1964" ry="18"/>
<text text-anchor="middle" x="60.2656" y="-158.3" font-family="Times,serif" font-size="14.00">cm&#45;config</text>
</g>
<!-- vault&#45;install -->
<g id="node2" class="node"><title>vault&#45;install</title>
<ellipse fill="none" stroke="black" cx="81.2656" cy="-18" rx="51.4931" ry="18"/>
<text text-anchor="middle" x="81.2656" y="-14.3" font-family="Times,serif" font-size="14.00">vault&#45;install</text>
</g>
<!-- cm&#45;config&#45;&gt;vault&#45;install -->
<g id="edge1" class="edge"><title>cm&#45;config&#45;&gt;vault&#45;install</title>
<path fill="none" stroke="black" d="M37.7459,-146.215C25.656,-136.871 11.906,-123.621 5.26564,-108 -0.993889,-93.2752 -2.13587,-86.1851 5.26564,-72 12.9569,-57.2596 26.8264,-45.7823 40.6315,-37.3361"/>
<polygon fill="black" stroke="black" points="42.6661,-40.2055 49.6286,-32.2196 39.2057,-34.1206 42.6661,-40.2055"/>
</g>
<!-- cm&#45;install -->
<g id="node3" class="node"><title>cm&#45;install</title>
<ellipse fill="none" stroke="black" cx="60.2656" cy="-90" rx="46.2191" ry="18"/>
<text text-anchor="middle" x="60.2656" y="-86.3" font-family="Times,serif" font-size="14.00">cm&#45;install</text>
</g>
<!-- cm&#45;config&#45;&gt;cm&#45;install -->
<g id="edge2" class="edge"><title>cm&#45;config&#45;&gt;cm&#45;install</title>
<path fill="none" stroke="black" d="M60.2656,-143.697C60.2656,-135.983 60.2656,-126.712 60.2656,-118.112"/>
<polygon fill="black" stroke="black" points="63.7657,-118.104 60.2656,-108.104 56.7657,-118.104 63.7657,-118.104"/>
</g>
<!-- vault&#45;config -->
<g id="node4" class="node"><title>vault&#45;config</title>
<ellipse fill="none" stroke="black" cx="177.266" cy="-90" rx="52.4675" ry="18"/>
<text text-anchor="middle" x="177.266" y="-86.3" font-family="Times,serif" font-size="14.00">vault&#45;config</text>
</g>
<!-- cm&#45;config&#45;&gt;vault&#45;config -->
<g id="edge3" class="edge"><title>cm&#45;config&#45;&gt;vault&#45;config</title>
<path fill="none" stroke="black" d="M84.5081,-146.496C101.612,-136.263 124.748,-122.421 143.634,-111.121"/>
<polygon fill="black" stroke="black" points="145.463,-114.106 152.247,-105.968 141.869,-108.099 145.463,-114.106"/>
</g>
<!-- vault&#45;config&#45;&gt;vault&#45;install -->
<g id="edge4" class="edge"><title>vault&#45;config&#45;&gt;vault&#45;install</title>
<path fill="none" stroke="black" d="M155.96,-73.4647C142.661,-63.7677 125.354,-51.1478 110.748,-40.4978"/>
<polygon fill="black" stroke="black" points="112.654,-37.5556 102.512,-34.4918 108.53,-43.2116 112.654,-37.5556"/>
</g>
</g>
</svg>
